<mxfile host="app.diagrams.net" modified="2023-01-14T04:06:01.123Z" agent="5.0 (Windows NT 10.0; Win64; x64) AppleWebKit/537.36 (KHTML, like Gecko) Chrome/109.0.0.0 Safari/537.36" version="20.8.1" etag="QiQAHjsCzd00cuo4cjDm" type="github">
  <diagram id="4oBu48noKcRP6mXdsUqn" name="第 1 页">
    <mxGraphModel dx="794" dy="478" grid="1" gridSize="10" guides="1" tooltips="1" connect="1" arrows="1" fold="1" page="1" pageScale="1" pageWidth="827" pageHeight="1169" math="0" shadow="0">
      <root>
        <mxCell id="0" />
        <mxCell id="1" parent="0" />
        <mxCell id="vYLSqCHWeaM7cHuhahDU-22" style="edgeStyle=orthogonalEdgeStyle;rounded=0;orthogonalLoop=1;jettySize=auto;html=1;exitX=1;exitY=0.75;exitDx=0;exitDy=0;entryX=0;entryY=0.75;entryDx=0;entryDy=0;fontSize=16;" edge="1" parent="1" source="vYLSqCHWeaM7cHuhahDU-1" target="vYLSqCHWeaM7cHuhahDU-2">
          <mxGeometry relative="1" as="geometry" />
        </mxCell>
        <mxCell id="vYLSqCHWeaM7cHuhahDU-1" value="" style="rounded=0;whiteSpace=wrap;html=1;" vertex="1" parent="1">
          <mxGeometry x="120" y="80" width="120" height="320" as="geometry" />
        </mxCell>
        <mxCell id="vYLSqCHWeaM7cHuhahDU-2" value="" style="rounded=0;whiteSpace=wrap;html=1;" vertex="1" parent="1">
          <mxGeometry x="560" y="80" width="120" height="320" as="geometry" />
        </mxCell>
        <mxCell id="vYLSqCHWeaM7cHuhahDU-3" value="&lt;font style=&quot;font-size: 16px;&quot;&gt;Chal&lt;/font&gt;" style="text;html=1;strokeColor=none;fillColor=none;align=center;verticalAlign=middle;whiteSpace=wrap;rounded=0;" vertex="1" parent="1">
          <mxGeometry x="150" y="100" width="60" height="30" as="geometry" />
        </mxCell>
        <mxCell id="vYLSqCHWeaM7cHuhahDU-4" value="Adv&lt;br&gt;(select id)" style="text;html=1;strokeColor=none;fillColor=none;align=center;verticalAlign=middle;whiteSpace=wrap;rounded=0;fontSize=16;" vertex="1" parent="1">
          <mxGeometry x="590" y="100" width="60" height="30" as="geometry" />
        </mxCell>
        <mxCell id="vYLSqCHWeaM7cHuhahDU-5" value="b={0,1}" style="text;html=1;strokeColor=none;fillColor=none;align=center;verticalAlign=middle;whiteSpace=wrap;rounded=0;fontSize=16;" vertex="1" parent="1">
          <mxGeometry x="150" y="270" width="60" height="30" as="geometry" />
        </mxCell>
        <mxCell id="vYLSqCHWeaM7cHuhahDU-6" value="" style="endArrow=classic;html=1;rounded=0;fontSize=16;entryX=1;entryY=0;entryDx=0;entryDy=0;exitX=0;exitY=0;exitDx=0;exitDy=0;" edge="1" parent="1" source="vYLSqCHWeaM7cHuhahDU-2" target="vYLSqCHWeaM7cHuhahDU-1">
          <mxGeometry width="50" height="50" relative="1" as="geometry">
            <mxPoint x="560" y="119" as="sourcePoint" />
            <mxPoint x="430" y="200" as="targetPoint" />
          </mxGeometry>
        </mxCell>
        <mxCell id="vYLSqCHWeaM7cHuhahDU-7" value="Ac=Ac1...AcK for each authority" style="text;html=1;strokeColor=none;fillColor=none;align=center;verticalAlign=middle;whiteSpace=wrap;rounded=0;fontSize=16;" vertex="1" parent="1">
          <mxGeometry x="255" y="50" width="290" height="30" as="geometry" />
        </mxCell>
        <mxCell id="vYLSqCHWeaM7cHuhahDU-8" value="" style="endArrow=classic;html=1;rounded=0;fontSize=16;entryX=0.006;entryY=0.129;entryDx=0;entryDy=0;entryPerimeter=0;" edge="1" parent="1" target="vYLSqCHWeaM7cHuhahDU-2">
          <mxGeometry width="50" height="50" relative="1" as="geometry">
            <mxPoint x="240" y="121" as="sourcePoint" />
            <mxPoint x="430" y="180" as="targetPoint" />
          </mxGeometry>
        </mxCell>
        <mxCell id="vYLSqCHWeaM7cHuhahDU-10" value="system parameters" style="text;html=1;strokeColor=none;fillColor=none;align=center;verticalAlign=middle;whiteSpace=wrap;rounded=0;fontSize=16;" vertex="1" parent="1">
          <mxGeometry x="255" y="90" width="260" height="30" as="geometry" />
        </mxCell>
        <mxCell id="vYLSqCHWeaM7cHuhahDU-14" value="" style="endArrow=classic;html=1;rounded=0;fontSize=16;exitX=0;exitY=0.25;exitDx=0;exitDy=0;entryX=1;entryY=0.25;entryDx=0;entryDy=0;" edge="1" parent="1" source="vYLSqCHWeaM7cHuhahDU-2" target="vYLSqCHWeaM7cHuhahDU-1">
          <mxGeometry width="50" height="50" relative="1" as="geometry">
            <mxPoint x="380" y="230" as="sourcePoint" />
            <mxPoint x="430" y="180" as="targetPoint" />
          </mxGeometry>
        </mxCell>
        <mxCell id="vYLSqCHWeaM7cHuhahDU-15" value="Secret Key Queries" style="text;html=1;strokeColor=none;fillColor=none;align=center;verticalAlign=middle;whiteSpace=wrap;rounded=0;fontSize=16;" vertex="1" parent="1">
          <mxGeometry x="242.5" y="130" width="285" height="30" as="geometry" />
        </mxCell>
        <mxCell id="vYLSqCHWeaM7cHuhahDU-17" style="edgeStyle=orthogonalEdgeStyle;rounded=0;orthogonalLoop=1;jettySize=auto;html=1;exitX=0.5;exitY=1;exitDx=0;exitDy=0;fontSize=16;" edge="1" parent="1" source="vYLSqCHWeaM7cHuhahDU-1" target="vYLSqCHWeaM7cHuhahDU-1">
          <mxGeometry relative="1" as="geometry" />
        </mxCell>
        <mxCell id="vYLSqCHWeaM7cHuhahDU-18" value="response" style="text;html=1;strokeColor=none;fillColor=none;align=center;verticalAlign=middle;whiteSpace=wrap;rounded=0;fontSize=16;" vertex="1" parent="1">
          <mxGeometry x="300" y="170" width="180" height="30" as="geometry" />
        </mxCell>
        <mxCell id="vYLSqCHWeaM7cHuhahDU-19" value="" style="endArrow=classic;html=1;rounded=0;fontSize=16;entryX=-0.006;entryY=0.375;entryDx=0;entryDy=0;entryPerimeter=0;" edge="1" parent="1" target="vYLSqCHWeaM7cHuhahDU-2">
          <mxGeometry width="50" height="50" relative="1" as="geometry">
            <mxPoint x="240" y="200" as="sourcePoint" />
            <mxPoint x="430" y="230" as="targetPoint" />
          </mxGeometry>
        </mxCell>
        <mxCell id="vYLSqCHWeaM7cHuhahDU-20" value="ChallengeM0,M1" style="text;html=1;strokeColor=none;fillColor=none;align=center;verticalAlign=middle;whiteSpace=wrap;rounded=0;fontSize=16;" vertex="1" parent="1">
          <mxGeometry x="290" y="210" width="190" height="30" as="geometry" />
        </mxCell>
        <mxCell id="vYLSqCHWeaM7cHuhahDU-21" value="" style="endArrow=classic;html=1;rounded=0;fontSize=16;exitX=0;exitY=0.5;exitDx=0;exitDy=0;entryX=1;entryY=0.5;entryDx=0;entryDy=0;" edge="1" parent="1" source="vYLSqCHWeaM7cHuhahDU-2" target="vYLSqCHWeaM7cHuhahDU-1">
          <mxGeometry width="50" height="50" relative="1" as="geometry">
            <mxPoint x="380" y="280" as="sourcePoint" />
            <mxPoint x="430" y="230" as="targetPoint" />
          </mxGeometry>
        </mxCell>
        <mxCell id="vYLSqCHWeaM7cHuhahDU-23" value="Mb" style="text;html=1;strokeColor=none;fillColor=none;align=center;verticalAlign=middle;whiteSpace=wrap;rounded=0;fontSize=16;" vertex="1" parent="1">
          <mxGeometry x="320" y="290" width="140" height="30" as="geometry" />
        </mxCell>
        <mxCell id="vYLSqCHWeaM7cHuhahDU-24" value="" style="endArrow=classic;html=1;rounded=0;fontSize=16;exitX=0.5;exitY=1;exitDx=0;exitDy=0;" edge="1" parent="1" source="vYLSqCHWeaM7cHuhahDU-2" target="vYLSqCHWeaM7cHuhahDU-25">
          <mxGeometry width="50" height="50" relative="1" as="geometry">
            <mxPoint x="440" y="410" as="sourcePoint" />
            <mxPoint x="620" y="440" as="targetPoint" />
          </mxGeometry>
        </mxCell>
        <mxCell id="vYLSqCHWeaM7cHuhahDU-25" value="Guess b&#39;" style="text;html=1;strokeColor=none;fillColor=none;align=center;verticalAlign=middle;whiteSpace=wrap;rounded=0;fontSize=16;" vertex="1" parent="1">
          <mxGeometry x="575" y="430" width="90" height="30" as="geometry" />
        </mxCell>
        <mxCell id="vYLSqCHWeaM7cHuhahDU-27" value="" style="curved=1;endArrow=classic;html=1;rounded=0;fontSize=16;exitX=0.468;exitY=1.067;exitDx=0;exitDy=0;exitPerimeter=0;" edge="1" parent="1" source="vYLSqCHWeaM7cHuhahDU-15" target="vYLSqCHWeaM7cHuhahDU-28">
          <mxGeometry width="50" height="50" relative="1" as="geometry">
            <mxPoint x="380" y="370" as="sourcePoint" />
            <mxPoint x="330" y="420" as="targetPoint" />
            <Array as="points">
              <mxPoint x="430" y="370" />
              <mxPoint x="410" y="400" />
              <mxPoint x="380" y="320" />
            </Array>
          </mxGeometry>
        </mxCell>
        <mxCell id="vYLSqCHWeaM7cHuhahDU-28" value="&lt;div style=&quot;&quot;&gt;敌手可以向属性权威机构或中央权威机构任意多地查询秘密密钥。有两点约束要求:&lt;/div&gt;&lt;div&gt;对于每个GID，至少有一个诚实的权威k，攻击者只能请求到属性集中不多于dk个的属性值，即对手不能请求足够的属性来解密密文的挑战&lt;/div&gt;&lt;div&gt;敌手不会查询相同的权威与两次相同的GID&lt;/div&gt;" style="text;html=1;strokeColor=none;fillColor=none;align=left;verticalAlign=middle;whiteSpace=wrap;rounded=0;fontSize=16;" vertex="1" parent="1">
          <mxGeometry x="220" y="405" width="310" height="185" as="geometry" />
        </mxCell>
      </root>
    </mxGraphModel>
  </diagram>
</mxfile>
